<?xml version="1.0" encoding="utf-8"?>
<!-- Generator: Adobe Illustrator 19.2.1, SVG Export Plug-In . SVG Version: 6.00 Build 0)  -->
<!DOCTYPE svg PUBLIC "-//W3C//DTD SVG 1.1//EN" "http://www.w3.org/Graphics/SVG/1.1/DTD/svg11.dtd">
<svg version="1.1" id="Layer_1" xmlns="http://www.w3.org/2000/svg" xmlns:xlink="http://www.w3.org/1999/xlink" x="0px" y="0px"
	 viewBox="0 0 162 184" style="enable-background:new 0 0 162 184;" xml:space="preserve">
<style type="text/css">
	.st0{fill:url(#SVGID_1_);}
	.st1{fill:url(#SVGID_2_);}
	.st2{fill:url(#SVGID_3_);}
	.st3{fill:url(#SVGID_4_);}
	.st4{fill:url(#SVGID_5_);}
</style>
<g>
	<linearGradient id="SVGID_1_" gradientUnits="userSpaceOnUse" x1="81.1025" y1="181.5" x2="81.1025" y2="1.332">
		<stop  offset="0" style="stop-color:#DA345C"/>
		<stop  offset="1" style="stop-color:#F64B85"/>
	</linearGradient>
	<path class="st0" d="M153.8,53.2c4,0,7.3-3.3,7.3-7.3V35.6c0-19.3-15.7-35-35-35H39.1v0.1c0,0-0.1,0-0.1,0c-0.1,0-0.2,0-0.4,0
		c-0.4,0-0.9-0.1-1.3-0.1c-0.2,0-0.4,0-0.6,0c-0.2,0-0.4,0-0.5,0c-0.2,0-0.3,0-0.5,0c-0.2,0-0.3,0-0.5,0c-0.2,0-0.3,0-0.5,0
		c-0.2,0-0.5,0-0.7,0c-0.4,0-0.8,0.1-1.3,0.1c-0.1,0-0.2,0-0.3,0C14.7,2.6,1.1,18,1.1,36.2v0V147v0c0,18.2,13.6,33.6,31.4,35.5
		c0.1,0,0.2,0,0.3,0c0.4,0,0.8,0.1,1.3,0.1c0.2,0,0.5,0,0.7,0c0.2,0,0.3,0,0.5,0c0.2,0,0.3,0,0.5,0c0.2,0,0.3,0,0.5,0
		c0.2,0,0.4,0,0.5,0c0.2,0,0.4,0,0.6,0c0.4,0,0.9,0,1.3-0.1c0.1,0,0.2,0,0.4,0c0,0,0.1,0,0.1,0v0.1h87.1c19.3,0,35-15.7,35-35v-10.3
		c0-4-3.3-7.3-7.3-7.3h-22.1V53.2H153.8z M126.1,16.6c10.5,0,19,8.5,19,19v1.7H71.1v-1.7c0-0.8,0-1.6-0.1-2.3c0-0.2,0-0.4,0-0.6
		c-0.1-0.6-0.1-1.3-0.2-1.9c0-0.1,0-0.3-0.1-0.4c-0.1-0.7-0.3-1.5-0.4-2.2c0-0.2-0.1-0.4-0.1-0.5c-0.1-0.6-0.3-1.2-0.5-1.7
		c-0.1-0.2-0.1-0.4-0.2-0.5c-0.2-0.7-0.4-1.4-0.7-2.1c0-0.1-0.1-0.3-0.2-0.4c-0.2-0.6-0.5-1.1-0.7-1.7c-0.1-0.2-0.2-0.4-0.3-0.5
		c-0.3-0.7-0.6-1.3-1-1.9c0,0,0,0,0,0c-0.3-0.6-0.7-1.2-1.1-1.8c0-0.1-0.1-0.2-0.1-0.2H126.1z M145.1,147.7c0,10.5-8.5,19-19,19
		H65.4c0.1-0.1,0.1-0.2,0.1-0.2c0.4-0.6,0.8-1.2,1.1-1.8c0,0,0,0,0,0c0.4-0.6,0.7-1.3,1-1.9c0.1-0.2,0.2-0.4,0.3-0.5
		c0.3-0.6,0.5-1.1,0.7-1.7c0.1-0.1,0.1-0.3,0.2-0.4c0.3-0.7,0.5-1.4,0.7-2.1c0.1-0.2,0.1-0.3,0.2-0.5c0.2-0.6,0.3-1.1,0.5-1.7
		c0-0.2,0.1-0.4,0.1-0.5c0.2-0.7,0.3-1.5,0.4-2.2c0-0.1,0-0.3,0.1-0.4c0.1-0.6,0.2-1.3,0.2-1.9c0-0.2,0-0.4,0-0.6
		c0.1-0.8,0.1-1.5,0.1-2.3V146h74.1V147.7z M115.7,130h-10v-7.9c0-2.5-2-4.5-4.5-4.5h-5c-2.5,0-4.5,2-4.5,4.5v7.9H62.4
		c-4,0-7.3,3.3-7.3,7.3v10.3c0,10.7-8.9,19.4-19.7,19c-10.3-0.4-18.3-9.2-18.3-19.5V36c0-10.3,8-19.1,18.3-19.5
		c10.8-0.4,19.7,8.3,19.7,19v10.3c0,4,3.3,7.3,7.3,7.3h29.3v5.8c0,2.5,2,4.5,4.5,4.5h5c2.5,0,4.5-2,4.5-4.5v-5.8h10V130z"/>
	<linearGradient id="SVGID_2_" gradientUnits="userSpaceOnUse" x1="98.6717" y1="181.5" x2="98.6717" y2="1.332">
		<stop  offset="0" style="stop-color:#DA345C"/>
		<stop  offset="1" style="stop-color:#F64B85"/>
	</linearGradient>
	<path class="st1" d="M101.2,81.6h-5c-2.5,0-4.5,2-4.5,4.5v9c0,2.5,2,4.5,4.5,4.5h5c2.5,0,4.5-2,4.5-4.5v-9
		C105.7,83.6,103.7,81.6,101.2,81.6z"/>
	<linearGradient id="SVGID_3_" gradientUnits="userSpaceOnUse" x1="34.6205" y1="181.5" x2="34.6205" y2="1.332">
		<stop  offset="0" style="stop-color:#DA345C"/>
		<stop  offset="1" style="stop-color:#F64B85"/>
	</linearGradient>
	<path class="st2" d="M37.1,81.6h-5c-2.5,0-4.5,2-4.5,4.5v9c0,2.5,2,4.5,4.5,4.5h5c2.5,0,4.5-2,4.5-4.5v-9
		C41.6,83.6,39.6,81.6,37.1,81.6z"/>
	<linearGradient id="SVGID_4_" gradientUnits="userSpaceOnUse" x1="34.6205" y1="181.5" x2="34.6205" y2="1.332">
		<stop  offset="0" style="stop-color:#DA345C"/>
		<stop  offset="1" style="stop-color:#F64B85"/>
	</linearGradient>
	<path class="st3" d="M37.1,45.6h-5c-2.5,0-4.5,2-4.5,4.5v9c0,2.5,2,4.5,4.5,4.5h5c2.5,0,4.5-2,4.5-4.5v-9
		C41.6,47.6,39.6,45.6,37.1,45.6z"/>
	<linearGradient id="SVGID_5_" gradientUnits="userSpaceOnUse" x1="34.6205" y1="181.5" x2="34.6205" y2="1.332">
		<stop  offset="0" style="stop-color:#DA345C"/>
		<stop  offset="1" style="stop-color:#F64B85"/>
	</linearGradient>
	<path class="st4" d="M37.1,117.6h-5c-2.5,0-4.5,2-4.5,4.5v9c0,2.5,2,4.5,4.5,4.5h5c2.5,0,4.5-2,4.5-4.5v-9
		C41.6,119.6,39.6,117.6,37.1,117.6z"/>
</g>
</svg>
